<svg viewBox="64 64 896 896" focusable="false" data-icon="cloud" width="1em" height="1em" fill="currentColor" aria-hidden="true">
  <path d="M811.4 366.7C765.6 245.9 648.9 160 512.2 160S258.8 245.8 213 366.6C127.3 389.1 64 467.5 64 560c0 110.5 89.5 200 199.9 200H304c4.4 0 8-3.6 8-8v-40c0-4.4-3.6-8-8-8H264c-88.2 0-160-71.8-160-160 0-85.7 67.4-155.4 152.8-159.3l23.9-1.2L340.5 248a32 32 0 0132-32h62.8c15.7 0 30.3 7.8 39.1 20.8l48.5 64.7 25.7-5.9c49.1-11.2 100.2 2.2 136.2 36.1 35.9 33.9 49.3 84.9 36.1 136.2L720.3 565c-11.2 49.1 2.2 100.2 36.1 136.2 33.9 35.9 84.9 49.3 136.2 36.1l25.7-5.9 48.5 64.7a40 40 0 0039.1 20.8h62.8c15.7 0 30.3-7.8 39.1-20.8l48.5-64.7 25.7 5.9c51.3 11.8 102.3-1.8 136.2-36.1 33.9-35.9 47.3-87 36.1-136.2L811.4 366.7z"/>
</svg> 